<svg width="16" height="14" viewBox="0 0 16 14" fill="none" xmlns="http://www.w3.org/2000/svg">
<path d="M15.4688 0H0.15625C0.0703125 0 0 0.0703125 0 0.15625V1.40625C0 1.49219 0.0703125 1.5625 0.15625 1.5625H15.4688C15.5547 1.5625 15.625 1.49219 15.625 1.40625V0.15625C15.625 0.0703125 15.5547 0 15.4688 0ZM15.4688 12.1875H0.15625C0.0703125 12.1875 0 12.2578 0 12.3438V13.5938C0 13.6797 0.0703125 13.75 0.15625 13.75H15.4688C15.5547 13.75 15.625 13.6797 15.625 13.5938V12.3438C15.625 12.2578 15.5547 12.1875 15.4688 12.1875ZM15.4688 6.09375H0.15625C0.0703125 6.09375 0 6.16406 0 6.25V7.5C0 7.58594 0.0703125 7.65625 0.15625 7.65625H15.4688C15.5547 7.65625 15.625 7.58594 15.625 7.5V6.25C15.625 6.16406 15.5547 6.09375 15.4688 6.09375Z" fill="#fff"/>
</svg>
